HIERARCHY
ROOT Pelvis
{
	OFFSET 0.000000 0.000000 0.000000
	CHANNELS 6 Xposition Yposition Zposition Xrotation Yrotation Zrotation
	JOINT LeftUpLeg_virtual
	{
		OFFSET 0.000000 0.000000 0.000000
		CHANNELS 3 Xrotation Yrotation Zrotation
		JOINT LeftUpLeg
		{
			OFFSET 18.735201 -5.666702 -4.541200
			CHANNELS 3 Xrotation Yrotation Zrotation
			JOINT LeftLeg
			{
				OFFSET -0.021200 -31.938179 0.493100
				CHANNELS 3 Xrotation Yrotation Zrotation
				JOINT LeftFoot
				{
					OFFSET 0.021200 -31.938179 -4.336299
					CHANNELS 3 Xrotation Yrotation Zrotation
					JOINT LeftToeBase
					{
						OFFSET 0.943001 -26.722000 15.023500
						CHANNELS 3 Xrotation Yrotation Zrotation
						End Site
						{
							OFFSET 0 0 0
						}
					}
				}
			}
		}
	}
	JOINT RightUpLeg_virtual
	{
		OFFSET 0.000000 0.000000 0.000000
		CHANNELS 3 Xrotation Yrotation Zrotation
		JOINT RightUpLeg
		{
			OFFSET -18.735201 -5.666702 -4.541200
			CHANNELS 3 Xrotation Yrotation Zrotation
			JOINT RightLeg
			{
				OFFSET 0.018946 -31.938133 0.493100
				CHANNELS 3 Xrotation Yrotation Zrotation
				JOINT RightFoot
				{
					OFFSET -0.018946 -31.938126 -4.336299
					CHANNELS 3 Xrotation Yrotation Zrotation
					JOINT RightToeBase
					{
						OFFSET -0.943001 -26.722004 15.023500
						CHANNELS 3 Xrotation Yrotation Zrotation
						End Site
						{
							OFFSET 0 0 0
						}
					}
				}
			}
		}
	}
	JOINT Hips_virtual
	{
		OFFSET 0.000000 0.000000 0.000000
		CHANNELS 3 Xrotation Yrotation Zrotation
		JOINT Hips
		{
			OFFSET -0.000000 -0.000000 -0.000000
			CHANNELS 3 Xrotation Yrotation Zrotation
			JOINT Spine
			{
				OFFSET 0.000000 10.199997 -0.299500
				CHANNELS 3 Xrotation Yrotation Zrotation
				JOINT Spine1
				{
					OFFSET 0.000000 11.900002 -1.516600
					CHANNELS 3 Xrotation Yrotation Zrotation
					JOINT Spine2
					{
						OFFSET 0.000000 13.600006 -2.842500
						CHANNELS 3 Xrotation Yrotation Zrotation
						JOINT Neck_virtual
						{
							OFFSET 0.000000 0.000000 0.000000
							CHANNELS 3 Xrotation Yrotation Zrotation
							JOINT Neck
							{
								OFFSET 0.000000 9.624100 -2.890100
								CHANNELS 3 Xrotation Yrotation Zrotation
								JOINT Head
								{
									OFFSET 0.000000 14.068802 -1.351900
									CHANNELS 3 Xrotation Yrotation Zrotation
									End Site
									{
										OFFSET 0 0 0
									}
								}
							}
						}
						JOINT LeftShoulder_virtual
						{
							OFFSET 0.000000 0.000000 0.000000
							CHANNELS 3 Xrotation Yrotation Zrotation
							JOINT LeftShoulder
							{
								OFFSET 15.263000 10.923401 -0.547700
								CHANNELS 3 Xrotation Yrotation Zrotation
								JOINT LeftArm
								{
									OFFSET 25.438599 -2.830597 -13.032500
									CHANNELS 3 Xrotation Yrotation Zrotation
									JOINT LeftForeArm
									{
										OFFSET 29.960503 0.000000 0.000000
										CHANNELS 3 Xrotation Yrotation Zrotation
										JOINT LeftHand
										{
											OFFSET 27.849251 0.000000 0.000000
											CHANNELS 3 Xrotation Yrotation Zrotation
											End Site
											{
												OFFSET 0 0 0
											}
										}
									}
								}
							}
						}
						JOINT RightShoulder_virtual
						{
							OFFSET 0.000000 0.000000 0.000000
							CHANNELS 3 Xrotation Yrotation Zrotation
							JOINT RightShoulder
							{
								OFFSET -15.263000 10.923401 -0.547700
								CHANNELS 3 Xrotation Yrotation Zrotation
								JOINT RightArm
								{
									OFFSET -25.438599 -2.830597 -13.032500
									CHANNELS 3 Xrotation Yrotation Zrotation
									JOINT RightForeArm
									{
										OFFSET -29.960503 0.000000 0.000000
										CHANNELS 3 Xrotation Yrotation Zrotation
										JOINT RightHand
										{
											OFFSET -27.849251 0.000000 0.000000
											CHANNELS 3 Xrotation Yrotation Zrotation
											End Site
											{
												OFFSET 0 0 0
											}
										}
									}
								}
							}
						}
					}
				}
			}
		}
	}
}
MOTION
Frames: 10
Frame Time: 0.03333333
-3.924572 80.592049 2.682373 0.000000 0.000000 0.000000 0.072993 -40.656493 2.883147 -44.054208 -1.809528 17.811834 49.529441 -9.036775 -1.807975 -6.029382 -7.727813 -14.369627 0.000000 0.000000 0.000000 6.108821 -42.943465 -3.623619 -25.229566 -15.653651 -24.824145 46.778275 -0.233790 -0.388679 -11.268855 -3.676982 11.119819 0.000000 0.000000 0.000000 -2.781436 -22.357330 0.292939 -4.078325 -20.662132 -1.767865 8.525942 3.706701 -1.648913 3.137359 1.890862 -1.153607 0.000000 0.000000 0.000000 3.616386 2.692667 0.134883 0.002335 2.105237 0.080620 0.000000 0.000000 0.000000 2.380574 1.800890 -0.622429 0.599774 2.014288 -6.860302 -45.661956 -15.516711 -59.095213 -41.520737 -77.659258 -37.712360 0.000000 0.000000 0.000000 3.084045 1.463286 -1.614730 1.930861 13.008940 -1.990907 -33.883418 36.108980 65.943181 -171.051405 69.901577 173.212054 0.000000 0.000000 0.000000 
-3.762087 80.060768 1.889067 0.000000 0.000000 0.000000 -0.514670 -40.864496 2.919922 -44.530757 -2.112343 17.896960 50.369213 -9.919441 -2.200813 -5.833922 -8.254070 -15.700266 0.000000 0.000000 0.000000 6.460430 -41.762550 -4.078292 -24.485333 -15.291431 -25.117771 47.028151 0.855153 0.171682 -11.627721 -3.108244 12.626674 0.000000 0.000000 0.000000 -3.986729 -23.232813 -0.422476 -2.356355 -17.557997 -0.876916 9.236064 3.877703 -2.241289 3.527816 2.315096 -1.130256 0.000000 0.000000 0.000000 3.706407 2.672790 -0.130075 0.099401 2.303597 0.040810 0.000000 0.000000 0.000000 1.858673 1.693726 -0.603107 1.142331 2.949265 -6.935634 -48.009700 -15.816421 -60.123089 -48.809440 -79.656316 -45.203370 0.000000 0.000000 0.000000 2.852166 1.395433 -1.755400 2.299086 12.653503 -1.952703 -35.384816 37.604863 66.904032 -171.668540 64.832449 173.674867 0.000000 0.000000 0.000000 
-1.892270 78.972977 3.817827 0.000000 0.000000 0.000000 -0.932863 -40.313822 2.765975 -44.963668 -2.021047 17.918660 50.045937 -9.858646 -2.556927 -6.361198 -7.878540 -16.153126 0.000000 0.000000 0.000000 6.565288 -43.108978 -4.171628 -24.183784 -15.700146 -25.343524 46.486537 1.065127 0.351687 -12.332555 -3.097834 12.936509 0.000000 0.000000 0.000000 -1.753939 -23.581810 1.270861 -4.304515 -16.149465 -1.418784 10.189975 3.861671 -2.970085 3.058674 2.279984 -0.959955 0.000000 0.000000 0.000000 4.189498 2.549459 -0.190368 0.197569 2.390959 -0.089195 0.000000 0.000000 0.000000 1.554736 1.967978 -0.571045 0.995994 2.619054 -7.623036 -50.788269 -17.037248 -59.874873 -48.774750 -79.604899 -44.734966 0.000000 0.000000 0.000000 2.527553 1.369473 -1.679664 2.449948 11.842926 -1.737151 -33.612088 35.991736 66.459626 -170.944445 65.334455 172.420080 0.000000 0.000000 0.000000 
-2.624785 78.234886 4.164288 0.000000 0.000000 0.000000 -1.260850 -39.299379 3.367638 -45.931847 -2.065485 18.848155 51.613609 -10.221061 -2.967543 -5.647936 -7.939543 -17.111354 0.000000 0.000000 0.000000 6.296430 -44.287466 -4.719202 -24.387095 -15.873870 -25.949005 47.394341 1.385830 0.475883 -12.196105 -2.912148 13.328867 0.000000 0.000000 0.000000 -3.169941 -23.870468 0.407334 -1.376822 -16.998673 -1.702607 9.231800 3.416918 -2.428388 3.248046 2.478201 -1.165265 0.000000 0.000000 0.000000 3.751663 2.380791 0.085780 0.029602 2.382008 0.024159 0.000000 0.000000 0.000000 1.870665 1.892489 -0.833662 0.798209 3.817668 -7.637348 -50.770804 -17.840908 -59.166063 -50.716887 -80.212041 -46.529878 0.000000 0.000000 0.000000 2.192065 1.492693 -1.648694 1.584304 11.750450 -0.552403 -35.979790 34.314642 67.865661 -169.145974 64.064613 170.717532 0.000000 0.000000 0.000000 
-2.464557 77.606842 4.781811 0.000000 0.000000 0.000000 -0.282638 -38.605008 3.923629 -45.241988 -1.780509 19.311368 53.560055 -11.055056 -3.447715 -4.783923 -8.378457 -18.468178 0.000000 0.000000 0.000000 6.135234 -46.127946 -5.537211 -24.487534 -16.237323 -26.940423 47.546125 1.646693 0.639747 -12.756941 -2.870687 13.687014 0.000000 0.000000 0.000000 -2.302527 -23.631918 0.861455 -4.158387 -17.052955 -0.477437 10.688169 3.717988 -2.780053 3.177692 2.411174 -0.840397 0.000000 0.000000 0.000000 4.028099 2.209799 0.114760 -0.073938 2.539263 0.030454 0.000000 0.000000 0.000000 1.617804 1.588552 -0.949674 0.553410 4.394275 -8.564250 -51.130417 -18.442143 -58.722292 -50.696693 -79.726223 -46.763700 0.000000 0.000000 0.000000 2.251926 1.407047 -1.376521 2.347189 12.528573 -0.900685 -33.940176 33.523532 67.183182 -168.295438 63.345223 170.201115 0.000000 0.000000 0.000000 
-1.987565 76.802124 5.718365 0.000000 0.000000 0.000000 -1.512481 -39.910916 3.332923 -46.468615 -2.257440 18.956898 54.817958 -12.131436 -3.570743 -4.343718 -9.246001 -19.596448 0.000000 0.000000 0.000000 5.398452 -45.949688 -6.498084 -24.898259 -15.921929 -27.601314 48.611187 2.199774 0.757355 -12.262238 -2.454428 14.249114 0.000000 0.000000 0.000000 -4.278382 -27.843000 0.764546 -0.976817 -13.249094 -0.740220 9.408156 3.801380 -2.417667 3.389020 2.960010 -0.630258 0.000000 0.000000 0.000000 3.112804 2.591861 -0.152527 0.034043 2.665672 -0.154243 0.000000 0.000000 0.000000 1.504889 1.488738 -1.223756 0.913208 3.512264 -8.768231 -49.699574 -18.461139 -56.170226 -41.841906 -80.095948 -38.258997 0.000000 0.000000 0.000000 2.090047 1.430738 -1.383048 2.351877 12.196957 -1.337334 -34.626720 35.281243 68.668140 -169.200957 63.627522 172.216595 0.000000 0.000000 0.000000 
-1.706143 76.418159 6.387661 0.000000 0.000000 0.000000 -2.770438 -40.787042 3.255205 -48.260771 -2.802640 19.282678 57.404031 -13.035088 -3.848116 -3.129559 -9.800101 -20.959820 0.000000 0.000000 0.000000 3.703827 -46.024239 -7.843308 -26.796017 -15.160001 -28.506744 49.626829 3.664072 0.774542 -12.044097 -1.309512 15.316771 0.000000 0.000000 0.000000 -4.181912 -27.673138 0.810410 -1.012417 -14.106451 -0.951692 9.455605 5.214459 -2.459725 3.746729 2.815037 -0.585035 0.000000 0.000000 0.000000 3.333144 2.571626 -0.027167 0.071359 2.701373 -0.168111 0.000000 0.000000 0.000000 1.236696 1.388815 -1.245323 0.615075 2.573132 -8.830028 -50.054973 -18.201614 -54.290063 -45.198405 -80.271156 -41.352417 0.000000 0.000000 0.000000 2.059699 1.504981 -1.408938 2.558552 11.619010 -1.737438 -34.038965 34.620135 67.976488 -168.988237 63.619148 171.993275 0.000000 0.000000 0.000000 
-2.269922 75.412201 5.901031 0.000000 0.000000 0.000000 -3.621073 -43.316916 3.480123 -49.368293 -3.878638 19.507488 60.631446 -14.789629 -3.767125 -1.381588 -11.427908 -22.679655 0.000000 0.000000 0.000000 3.016638 -45.210040 -8.509097 -27.806627 -14.518788 -29.022300 51.450654 5.074702 0.779534 -11.344667 -0.133307 16.401323 0.000000 0.000000 0.000000 -5.205130 -31.692440 0.014786 0.259939 -10.236878 -2.707825 9.565769 5.161084 -2.029369 2.983408 2.853205 -0.625481 0.000000 0.000000 0.000000 3.198612 2.670658 -0.242084 0.042720 2.802180 -0.217878 0.000000 0.000000 0.000000 0.940037 1.091478 -1.565954 0.201851 3.493478 -9.924498 -49.264153 -18.299344 -54.430583 -53.515553 -81.944798 -49.859739 0.000000 0.000000 0.000000 1.820027 1.645666 -1.659656 1.778666 11.964658 -1.885494 -33.720142 32.523018 66.468942 -168.566227 63.219056 171.078371 0.000000 0.000000 0.000000 
-1.781318 74.488853 6.274250 0.000000 0.000000 0.000000 -5.151236 -44.942713 2.932577 -51.096348 -4.520207 19.395796 64.614921 -16.143811 -4.047760 0.777325 -12.528198 -24.618746 0.000000 0.000000 0.000000 2.210691 -45.777413 -9.409710 -28.642390 -14.289630 -29.793278 53.032440 6.303299 0.303363 -10.808943 1.098564 16.787546 0.000000 0.000000 0.000000 -4.301234 -31.927169 0.933037 0.599156 -9.251699 -2.591802 9.522342 5.166830 -2.170841 2.916041 2.947706 -0.429509 0.000000 0.000000 0.000000 2.787164 2.665890 -0.161429 -0.037849 2.804163 -0.252240 0.000000 0.000000 0.000000 0.916685 1.179895 -1.592392 0.473329 3.346183 -9.964381 -49.958370 -17.577688 -53.705976 -49.055590 -80.911241 -45.554469 0.000000 0.000000 0.000000 1.210994 1.639138 -1.682438 1.847124 12.307091 -2.560142 -34.570593 34.537842 67.342366 -169.363474 63.160576 172.071972 0.000000 0.000000 0.000000 
-1.045508 73.728539 7.260649 0.000000 0.000000 0.000000 -5.744651 -46.545079 3.294572 -52.202470 -5.279574 19.881846 68.598554 -17.259331 -3.949874 3.061182 -13.717340 -25.970343 0.000000 0.000000 0.000000 1.592348 -45.455664 -10.577251 -28.986718 -13.854591 -30.674598 53.777993 8.034279 0.282706 -10.429083 2.514779 18.114263 0.000000 0.000000 0.000000 -4.129012 -33.108768 1.419560 2.112941 -9.115200 -1.842329 10.179243 5.231336 -2.230143 3.059811 2.998321 -0.406691 0.000000 0.000000 0.000000 3.116223 2.811059 -0.161541 0.193900 3.029060 -0.378919 0.000000 0.000000 0.000000 0.934093 1.029349 -1.649486 0.775276 3.729546 -11.127293 -48.002768 -16.324227 -53.801994 -44.214482 -79.538810 -41.586887 0.000000 0.000000 0.000000 1.246721 1.741238 -1.616500 1.894036 12.727639 -3.275586 -34.201861 34.087917 67.379680 -170.401813 61.768454 173.202450 0.000000 0.000000 0.000000 
